<svg width="378" height="292" viewBox="0 0 378 292" fill="none" xmlns="http://www.w3.org/2000/svg">
<path d="M109 290L298 40C305.2 30.4762 317 36.0317 322 40L377 290C353.8 278.8 325.333 285.333 314 290L264 180L185 290C149.8 279.6 119.667 285.667 109 290Z" fill="#2478A0" stroke="#2478A0"/>
<path d="M232 255.092L255 227.092C259.6 221.492 262.25 224.759 263 227.092C272.333 242.092 287.6 268.692 274 255.092C260.4 241.492 240.333 249.425 232 255.092Z" fill="#2478A0" stroke="#2478A0"/>
<path d="M211 13.9531V130.984L206.92 134.842L160 194V13.9531C181.216 -0.450697 202.84 7.95149 211 13.9531Z" fill="#2478A0" stroke="#2478A0"/>
<path d="M61 172V289C35.4 273.8 10.3333 282.667 1 289V8.3782C19.4 -4.98445 52.6667 2.81045 61 8.37822V120C99.4 107.38 168 132.606 186 149L159 195C123 166.048 76 154.564 61 172Z" fill="#2478A0" stroke="#2478A0"/>
</svg>
